<svg width="24" height="24" viewBox="0 0 24 24" fill="none" xmlns="http://www.w3.org/2000/svg">
<path d="M11.3984 6.40625L11.0859 6.67969C10.9297 6.875 10.9297 7.14844 11.0859 7.34375L15.6172 11.8359H3.46875C3.19531 11.8359 3 12.0703 3 12.3047V12.6953C3 12.9688 3.19531 13.1641 3.46875 13.1641H15.6172L11.125 17.6953C10.9297 17.8906 10.9297 18.1641 11.125 18.3594L11.3984 18.6328C11.5547 18.8281 11.8672 18.8281 12.0625 18.6328L17.8438 12.8516C18.0391 12.6562 18.0391 12.3828 17.8438 12.1875L12.0625 6.40625C11.8672 6.21094 11.5547 6.21094 11.3984 6.40625ZM20.5 5.46875C20.5 5.23438 20.2656 5 20.0312 5H19.7188C19.4453 5 19.25 5.23438 19.25 5.46875V19.5312C19.25 19.8047 19.4453 20 19.7188 20H20.0312C20.2656 20 20.5 19.8047 20.5 19.5312V5.46875Z" fill="#CDCDCD"/>
<path d="M11.3984 6.40625L11.4808 6.50032L11.4891 6.49301L11.496 6.48434L11.3984 6.40625ZM11.0859 6.67969L11.0036 6.58562L10.9953 6.59293L10.9883 6.6016L11.0859 6.67969ZM11.0859 7.34375L10.9883 7.42184L10.9928 7.42745L10.9979 7.43252L11.0859 7.34375ZM15.6172 11.8359V11.9609H15.9208L15.7052 11.7472L15.6172 11.8359ZM15.6172 13.1641L15.706 13.2521L15.9171 13.0391H15.6172V13.1641ZM11.125 17.6953L11.2134 17.7837L11.2138 17.7833L11.125 17.6953ZM11.3984 18.6328L11.4966 18.5542L11.4868 18.5444L11.3984 18.6328ZM11.3161 6.31218L11.0036 6.58562L11.1683 6.77376L11.4808 6.50032L11.3161 6.31218ZM10.9883 6.6016C10.7956 6.84257 10.7956 7.18087 10.9883 7.42184L11.1835 7.26566C11.0638 7.116 11.0638 6.90743 11.1835 6.75777L10.9883 6.6016ZM10.9979 7.43252L15.5292 11.9247L15.7052 11.7472L11.1739 7.25498L10.9979 7.43252ZM15.6172 11.7109H3.46875V11.9609H15.6172V11.7109ZM3.46875 11.7109C3.11964 11.7109 2.875 12.0081 2.875 12.3047H3.125C3.125 12.1325 3.27098 11.9609 3.46875 11.9609V11.7109ZM2.875 12.3047V12.6953H3.125V12.3047H2.875ZM2.875 12.6953C2.875 13.0378 3.12628 13.2891 3.46875 13.2891V13.0391C3.26435 13.0391 3.125 12.8997 3.125 12.6953H2.875ZM3.46875 13.2891H15.6172V13.0391H3.46875V13.2891ZM15.5284 13.0761L11.0362 17.6073L11.2138 17.7833L15.706 13.2521L15.5284 13.0761ZM11.0366 17.6069C10.9178 17.7258 10.8535 17.8739 10.8535 18.0273C10.8535 18.1808 10.9178 18.3289 11.0366 18.4478L11.2134 18.271C11.1369 18.1945 11.1035 18.1083 11.1035 18.0273C11.1035 17.9464 11.1369 17.8602 11.2134 17.7837L11.0366 17.6069ZM11.0366 18.4478L11.31 18.7212L11.4868 18.5444L11.2134 18.271L11.0366 18.4478ZM11.3008 18.7109C11.512 18.9749 11.9129 18.9592 12.1509 18.7212L11.9741 18.5444C11.8215 18.6971 11.5973 18.6813 11.496 18.5547L11.3008 18.7109ZM12.1509 18.7212L17.9321 12.94L17.7554 12.7632L11.9741 18.5444L12.1509 18.7212ZM17.9321 12.94C18.051 12.8211 18.1152 12.6729 18.1152 12.5195C18.1152 12.3661 18.051 12.2179 17.9321 12.0991L17.7554 12.2759C17.8318 12.3524 17.8652 12.4386 17.8652 12.5195C17.8652 12.6005 17.8318 12.6867 17.7554 12.7632L17.9321 12.94ZM17.9321 12.0991L12.1509 6.31786L11.9741 6.49464L17.7554 12.2759L17.9321 12.0991ZM12.1509 6.31786C11.9129 6.07988 11.512 6.06415 11.3008 6.32816L11.496 6.48434C11.5973 6.35772 11.8215 6.34199 11.9741 6.49464L12.1509 6.31786ZM20.625 5.46875C20.625 5.31091 20.5473 5.16353 20.4419 5.0581C20.3365 4.95266 20.1891 4.875 20.0312 4.875V5.125C20.1078 5.125 20.1948 5.16453 20.2651 5.23487C20.3355 5.30522 20.375 5.39222 20.375 5.46875H20.625ZM20.0312 4.875H19.7188V5.125H20.0312V4.875ZM19.7188 4.875C19.3696 4.875 19.125 5.17217 19.125 5.46875H19.375C19.375 5.29658 19.521 5.125 19.7188 5.125V4.875ZM19.125 5.46875V19.5312H19.375V5.46875H19.125ZM19.125 19.5312C19.125 19.8737 19.3763 20.125 19.7188 20.125V19.875C19.5143 19.875 19.375 19.7357 19.375 19.5312H19.125ZM19.7188 20.125H20.0312V19.875H19.7188V20.125ZM20.0312 20.125C20.3278 20.125 20.625 19.8804 20.625 19.5312H20.375C20.375 19.729 20.2034 19.875 20.0312 19.875V20.125ZM20.625 19.5312V5.46875H20.375V19.5312H20.625Z" fill="#CDCDCD"/>
</svg>
