<svg width="42" height="10" viewBox="0 0 42 10" fill="none" xmlns="http://www.w3.org/2000/svg">
<path d="M4.38 3.72H2.898L2.508 5.676H3.99L4.38 3.72ZM6.648 2.934L6.57 3.384C6.55 3.5 6.502 3.586 6.426 3.642C6.354 3.694 6.242 3.72 6.09 3.72H5.262L4.872 5.676H5.946C6.062 5.676 6.144 5.71 6.192 5.778C6.244 5.842 6.258 5.956 6.234 6.12L6.18 6.462H4.758L4.254 9H3.768C3.716 9 3.668 8.988 3.624 8.964C3.58 8.94 3.542 8.908 3.51 8.868C3.482 8.828 3.462 8.78 3.45 8.724C3.438 8.668 3.438 8.606 3.45 8.538L3.876 6.462H2.394L1.968 8.592C1.944 8.74 1.886 8.846 1.794 8.91C1.702 8.97 1.598 9 1.482 9H1.002L1.512 6.462H0.636C0.524 6.462 0.442 6.43 0.39 6.366C0.342 6.298 0.33 6.182 0.354 6.018L0.402 5.676H1.626L2.016 3.72H0.624L0.702 3.276C0.722 3.16 0.768 3.074 0.84 3.018C0.916 2.962 1.03 2.934 1.182 2.934H2.13L2.562 0.786C2.586 0.666 2.64 0.572 2.724 0.504C2.812 0.436 2.916 0.401999 3.036 0.401999H3.516L3.012 2.934H4.494L4.998 0.401999H5.472C5.588 0.401999 5.678 0.44 5.742 0.516C5.81 0.592 5.834 0.687999 5.814 0.804L5.376 2.934H6.648ZM15.0249 0.401999V9H13.8609V5.088H9.22294V9H8.05894V0.401999H9.22294V4.236H13.8609V0.401999H15.0249ZM19.3455 2.826C19.7895 2.826 20.1895 2.9 20.5455 3.048C20.9015 3.196 21.2055 3.406 21.4575 3.678C21.7095 3.95 21.9015 4.28 22.0335 4.668C22.1695 5.052 22.2375 5.482 22.2375 5.958C22.2375 6.438 22.1695 6.87 22.0335 7.254C21.9015 7.638 21.7095 7.966 21.4575 8.238C21.2055 8.51 20.9015 8.72 20.5455 8.868C20.1895 9.012 19.7895 9.084 19.3455 9.084C18.8975 9.084 18.4935 9.012 18.1335 8.868C17.7775 8.72 17.4735 8.51 17.2215 8.238C16.9695 7.966 16.7755 7.638 16.6395 7.254C16.5075 6.87 16.4415 6.438 16.4415 5.958C16.4415 5.482 16.5075 5.052 16.6395 4.668C16.7755 4.28 16.9695 3.95 17.2215 3.678C17.4735 3.406 17.7775 3.196 18.1335 3.048C18.4935 2.9 18.8975 2.826 19.3455 2.826ZM19.3455 8.25C19.9455 8.25 20.3935 8.05 20.6895 7.65C20.9855 7.246 21.1335 6.684 21.1335 5.964C21.1335 5.24 20.9855 4.676 20.6895 4.272C20.3935 3.868 19.9455 3.666 19.3455 3.666C19.0415 3.666 18.7755 3.718 18.5475 3.822C18.3235 3.926 18.1355 4.076 17.9835 4.272C17.8355 4.468 17.7235 4.71 17.6475 4.998C17.5755 5.282 17.5395 5.604 17.5395 5.964C17.5395 6.684 17.6875 7.246 17.9835 7.65C18.2835 8.05 18.7375 8.25 19.3455 8.25ZM25.9261 8.25C26.3261 8.25 26.6421 8.158 26.8741 7.974C27.1061 7.786 27.2221 7.53 27.2221 7.206C27.2221 7.062 27.2001 6.932 27.1561 6.816C27.1121 6.696 27.0401 6.592 26.9401 6.504C26.8401 6.416 26.7061 6.348 26.5381 6.3C26.3741 6.252 26.1721 6.228 25.9321 6.228H24.6181V8.25H25.9261ZM24.6181 3.642V5.55H25.7881C25.9641 5.55 26.1261 5.526 26.2741 5.478C26.4261 5.426 26.5561 5.356 26.6641 5.268C26.7721 5.176 26.8561 5.068 26.9161 4.944C26.9761 4.816 27.0061 4.676 27.0061 4.524C27.0061 4.412 26.9861 4.304 26.9461 4.2C26.9061 4.092 26.8381 3.998 26.7421 3.918C26.6461 3.834 26.5201 3.768 26.3641 3.72C26.2081 3.668 26.0161 3.642 25.7881 3.642H24.6181ZM25.8181 2.922C26.1941 2.922 26.5161 2.96 26.7841 3.036C27.0521 3.112 27.2721 3.216 27.4441 3.348C27.6161 3.476 27.7421 3.628 27.8221 3.804C27.9021 3.98 27.9421 4.168 27.9421 4.368C27.9421 4.5 27.9241 4.638 27.8881 4.782C27.8521 4.926 27.7881 5.064 27.6961 5.196C27.6081 5.328 27.4861 5.448 27.3301 5.556C27.1781 5.66 26.9861 5.742 26.7541 5.802C27.2181 5.882 27.5761 6.044 27.8281 6.288C28.0801 6.528 28.2061 6.846 28.2061 7.242C28.2061 7.538 28.1461 7.796 28.0261 8.016C27.9101 8.232 27.7481 8.414 27.5401 8.562C27.3361 8.71 27.0961 8.82 26.8201 8.892C26.5441 8.964 26.2481 9 25.9321 9H23.5921V2.922H25.8181ZM32.1072 2.826C32.5512 2.826 32.9512 2.9 33.3072 3.048C33.6632 3.196 33.9672 3.406 34.2192 3.678C34.4712 3.95 34.6632 4.28 34.7952 4.668C34.9312 5.052 34.9992 5.482 34.9992 5.958C34.9992 6.438 34.9312 6.87 34.7952 7.254C34.6632 7.638 34.4712 7.966 34.2192 8.238C33.9672 8.51 33.6632 8.72 33.3072 8.868C32.9512 9.012 32.5512 9.084 32.1072 9.084C31.6592 9.084 31.2552 9.012 30.8952 8.868C30.5392 8.72 30.2352 8.51 29.9832 8.238C29.7312 7.966 29.5372 7.638 29.4012 7.254C29.2692 6.87 29.2032 6.438 29.2032 5.958C29.2032 5.482 29.2692 5.052 29.4012 4.668C29.5372 4.28 29.7312 3.95 29.9832 3.678C30.2352 3.406 30.5392 3.196 30.8952 3.048C31.2552 2.9 31.6592 2.826 32.1072 2.826ZM32.1072 8.25C32.7072 8.25 33.1552 8.05 33.4512 7.65C33.7472 7.246 33.8952 6.684 33.8952 5.964C33.8952 5.24 33.7472 4.676 33.4512 4.272C33.1552 3.868 32.7072 3.666 32.1072 3.666C31.8032 3.666 31.5372 3.718 31.3092 3.822C31.0852 3.926 30.8972 4.076 30.7452 4.272C30.5972 4.468 30.4852 4.71 30.4092 4.998C30.3372 5.282 30.3012 5.604 30.3012 5.964C30.3012 6.684 30.4492 7.246 30.7452 7.65C31.0452 8.05 31.4992 8.25 32.1072 8.25ZM40.4218 5.298C40.4218 5.05 40.3858 4.824 40.3138 4.62C40.2458 4.412 40.1438 4.234 40.0078 4.086C39.8758 3.934 39.7138 3.818 39.5218 3.738C39.3298 3.654 39.1118 3.612 38.8678 3.612C38.3558 3.612 37.9498 3.762 37.6498 4.062C37.3538 4.358 37.1698 4.77 37.0978 5.298H40.4218ZM41.2858 8.148C41.1538 8.308 40.9958 8.448 40.8118 8.568C40.6278 8.684 40.4298 8.78 40.2178 8.856C40.0098 8.932 39.7938 8.988 39.5698 9.024C39.3458 9.064 39.1238 9.084 38.9038 9.084C38.4838 9.084 38.0958 9.014 37.7398 8.874C37.3878 8.73 37.0818 8.522 36.8218 8.25C36.5658 7.974 36.3658 7.634 36.2218 7.23C36.0778 6.826 36.0058 6.362 36.0058 5.838C36.0058 5.414 36.0698 5.018 36.1978 4.65C36.3298 4.282 36.5178 3.964 36.7618 3.696C37.0058 3.424 37.3038 3.212 37.6558 3.06C38.0078 2.904 38.4038 2.826 38.8438 2.826C39.2078 2.826 39.5438 2.888 39.8518 3.012C40.1638 3.132 40.4318 3.308 40.6558 3.54C40.8838 3.768 41.0618 4.052 41.1898 4.392C41.3178 4.728 41.3818 5.112 41.3818 5.544C41.3818 5.712 41.3638 5.824 41.3278 5.88C41.2918 5.936 41.2238 5.964 41.1238 5.964H37.0618C37.0738 6.348 37.1258 6.682 37.2178 6.966C37.3138 7.25 37.4458 7.488 37.6138 7.68C37.7818 7.868 37.9818 8.01 38.2138 8.106C38.4458 8.198 38.7058 8.244 38.9938 8.244C39.2618 8.244 39.4918 8.214 39.6838 8.154C39.8798 8.09 40.0478 8.022 40.1878 7.95C40.3278 7.878 40.4438 7.812 40.5358 7.752C40.6318 7.688 40.7138 7.656 40.7818 7.656C40.8698 7.656 40.9378 7.69 40.9858 7.758L41.2858 8.148Z" fill="#0088EE"/>
</svg>
